<svg xmlns="http://www.w3.org/2000/svg" viewBox="0 0 200 220" fill="none">
  <g fill="#555">
    <!-- Short straight hair: back -->
    <path d="M100 22 C72 22 52 40 50 64 L50 76 C54 74 58 68 62 60
             C68 50 80 44 100 44 C120 44 132 50 138 60
             C142 68 146 74 150 76 L150 64 C148 40 128 22 100 22 Z"/>
    <!-- Short hair sides -->
    <path d="M52 68 C48 72 46 80 46 88 C46 94 48 100 52 104 L54 102 C52 98 52 92 52 88 C52 82 54 76 56 72 Z"/>
    <path d="M148 68 C152 72 154 80 154 88 C154 94 152 100 148 104 L146 102 C148 98 148 92 148 88 C148 82 146 76 144 72 Z"/>
    <!-- Face -->
    <ellipse cx="100" cy="80" rx="34" ry="40" fill="white"/>
    <!-- Re-fill face area with skin tone of SVG -->
    <!-- Hair top fill -->
    <path d="M66 44 C68 34 80 26 100 26 C120 26 132 34 134 44 C126 36 114 32 100 32 C86 32 74 36 66 44 Z"/>
    <!-- Eyes -->
    <circle cx="87" cy="74" r="4.5"/>
    <circle cx="113" cy="74" r="4.5"/>
    <!-- Nose -->
    <circle cx="100" cy="85" r="2.2"/>
    <!-- Mouth -->
    <path d="M89 94 Q100 100 111 94" stroke="#555" stroke-width="2.5" fill="none" stroke-linecap="round"/>
    <!-- Neck -->
    <rect x="88" y="118" width="24" height="14" rx="3"/>
    <!-- Collared shirt body -->
    <path d="M58 132 C48 138 38 150 36 166 L164 166 C162 150 152 138 142 132
             C132 126 118 124 100 124 C82 124 68 126 58 132 Z"/>
    <!-- Collar left -->
    <path d="M76 124 L70 132 L100 140 Z"/>
    <!-- Collar right -->
    <path d="M124 124 L130 132 L100 140 Z"/>
    <!-- Shirt buttons -->
    <circle cx="100" cy="150" r="2.5" fill="white"/>
    <circle cx="100" cy="160" r="2.5" fill="white"/>
  </g>
</svg>
